<svg xmlns="http://www.w3.org/2000/svg" viewBox="0 0 24 24" width="24" height="24">
  <path fill="#000" fill-rule="evenodd" d="M12 7a5 5 0 110 10 5 5 0 010-10zm0 1.5a3.5 3.5 0 100 7 3.5 3.5 0 000-7z"/>
  <rect x="11.25" y="1" width="1.5" height="3" rx="0.75" fill="#000"/>
  <rect x="11.25" y="20" width="1.5" height="3" rx="0.75" fill="#000"/>
  <rect x="1" y="11.25" width="3" height="1.5" rx="0.75" fill="#000"/>
  <rect x="20" y="11.25" width="3" height="1.5" rx="0.75" fill="#000"/>
  <g transform="rotate(45 12 12)">
    <rect x="11.25" y="1" width="1.5" height="3" rx="0.75" fill="#000"/>
    <rect x="11.25" y="20" width="1.5" height="3" rx="0.75" fill="#000"/>
    <rect x="1" y="11.25" width="3" height="1.5" rx="0.75" fill="#000"/>
    <rect x="20" y="11.25" width="3" height="1.5" rx="0.75" fill="#000"/>
  </g>
</svg>
